# xmcd
#
# Track frame offsets:
#	150
#	22599
#	49246
#	71679
#	94271
#	115474
#	141561
#	167617
#	192805
#	215951
#	242365
#	264030
#	281050
#
# Disc length: 4031 seconds
#
# Revision: 0
# Processed by: cddbd v1.5.1PL2 Copyright (c) Steve Scherf et al.
# Submitted via: dBpowerAMP V4.0
#
DISCID=bd0fbd0d
DTITLE=David Calzado y su Charanga Habanera - El Ciclón De La Habana
DYEAR=2006
DGENRE=Salsa
TTITLE0=El Ciclón De La Habana
TTITLE1=Hit Parade
TTITLE2=Chica Mala
TTITLE3=Esta Es Mí Charanga
TTITLE4=Niñita De Farándula
TTITLE5=Soy Yo
TTITLE6=La Fanática
TTITLE7=Apiadate De Mí
TTITLE8=El Contrato
TTITLE9=Chera Mía
TTITLE10=Dejame Entrar
TTITLE11=Natividad
TTITLE12=Píntate Los Labios María
EXTD=
EXTT0=
EXTT1=
EXTT2=
EXTT3=
EXTT4=
EXTT5=
EXTT6=
EXTT7=
EXTT8=
EXTT9=
EXTT10=
EXTT11=
EXTT12=
PLAYORDER=
